<svg xmlns="http://www.w3.org/2000/svg" viewBox="0 0 360.01 149.39"><g id="Layer_7" data-name="Layer 7"><path d="M85.63,57.81,43.79,81.08a8.22,8.22,0,0,1-3.4,1.28A4.21,4.21,0,0,1,37.31,81,4.33,4.33,0,0,1,36,77.87a3.85,3.85,0,0,1,.69-2.37,9.63,9.63,0,0,1,2.81-2.13L67.61,57.81,39.5,42.24a9.82,9.82,0,0,1-2.81-2.12A3.89,3.89,0,0,1,36,37.75a4.28,4.28,0,0,1,1.31-3.13,4.24,4.24,0,0,1,3.08-1.31,8.24,8.24,0,0,1,3.4,1.23Z" transform="translate(-36 -33.31)"/><path d="M82,115.25a4.49,4.49,0,0,1-1.19,3.23,3.87,3.87,0,0,1-2.92,1.25,15.58,15.58,0,0,1-2.4-.3A50.62,50.62,0,0,0,66,118.37c-2.87,0-4.85.44-5.94,1.3a3.91,3.91,0,0,0-1.63,3.19v3.29H71.75c2.1,0,3.58.41,4.48,1.22a4.34,4.34,0,0,1,0,6.25c-.9.81-2.38,1.21-4.48,1.21H58.38V155.9H70.75c2.07,0,3.56.41,4.45,1.22a4.31,4.31,0,0,1,0,6.25c-.89.81-2.38,1.21-4.45,1.21H44.55c-2.1,0-3.59-.4-4.47-1.21a4,4,0,0,1-1.33-3.14,4,4,0,0,1,1.33-3.11c.88-.81,2.37-1.22,4.47-1.22H49.7V134.83H45.56c-2.08,0-3.57-.4-4.46-1.21a4,4,0,0,1-1.34-3.14,4,4,0,0,1,1.34-3.11c.89-.81,2.38-1.22,4.46-1.22H49.7v-3.29A12,12,0,0,1,54,113.44c2.84-2.5,6.94-3.75,12.34-3.75a61.39,61.39,0,0,1,8.32.67q4.69.65,6,1.83A3.91,3.91,0,0,1,82,115.25Z" transform="translate(-36 -33.31)"/><path d="M132.88,157.12c-.88-.81-2.38-1.22-4.45-1.22h-1.49V138.05a11.48,11.48,0,0,0-4.46-9.55Q118,125,109.93,125a38.33,38.33,0,0,0-6.05.54A57.21,57.21,0,0,0,97.31,127a15.14,15.14,0,0,0-3.17,1.16,3.46,3.46,0,0,0-1.19,1.3,4.13,4.13,0,0,0-.41,1.9,4.37,4.37,0,0,0,1.21,3.19,3.88,3.88,0,0,0,2.94,1.25,16.29,16.29,0,0,0,3.55-.55,43,43,0,0,1,10-1.52c3.13,0,5.25.42,6.37,1.23a3.81,3.81,0,0,1,1.66,3.18v2.07a57.66,57.66,0,0,0-9.09-.86q-9.81,0-15.38,4.69t-5.58,10.13c0,3,1.47,5.73,4.36,8.18S99.26,166,103.92,166a32.83,32.83,0,0,0,7.15-.87,28.63,28.63,0,0,0,7.19-2.59v2h10.17c2.07,0,3.57-.4,4.45-1.21a4.34,4.34,0,0,0,0-6.25Zm-14.62-4.35a25.67,25.67,0,0,1-7.05,3.35,24.46,24.46,0,0,1-7.08,1.23,10.48,10.48,0,0,1-5.8-1.4,2.32,2.32,0,0,1-1.14-2c0-1.13.79-2.25,2.37-3.34a15.75,15.75,0,0,1,9.09-2.58,49.25,49.25,0,0,1,9.61,1Z" transform="translate(-36 -33.31)"/><path d="M186.11,132.46a4.29,4.29,0,0,1-1.3,3.16,4.24,4.24,0,0,1-3.12,1.28,5.22,5.22,0,0,1-3.38-1.6,5.06,5.06,0,0,0-3.17-1.61q-1.81,0-5.44,2.29a86.89,86.89,0,0,0-9,6.85V155.9H173c2.1,0,3.59.41,4.47,1.22a4.34,4.34,0,0,1,0,6.25c-.88.81-2.37,1.21-4.47,1.21h-26.2c-2.07,0-3.57-.4-4.45-1.21a4,4,0,0,1-1.33-3.14,4,4,0,0,1,1.33-3.11c.88-.81,2.38-1.22,4.45-1.22H152V134.83h-3.13c-2.1,0-3.58-.4-4.48-1.21a4,4,0,0,1-1.33-3.14,4,4,0,0,1,1.33-3.11c.9-.81,2.38-1.22,4.48-1.22h11.8v5.42a48.71,48.71,0,0,1,8.6-5.25,15.59,15.59,0,0,1,5.92-1.31,13.16,13.16,0,0,1,8.2,3.13C185.19,129.56,186.11,131,186.11,132.46Z" transform="translate(-36 -33.31)"/><path d="M242.69,160.26a4,4,0,0,1-1.32,3.11c-.87.81-2.36,1.21-4.44,1.21h-8.25V137.2a4,4,0,0,0-.73-2.75,2.85,2.85,0,0,0-2.2-.76,5,5,0,0,0-2.67.76,19.1,19.1,0,0,0-3.81,4V155.9a5.72,5.72,0,0,1,4,1.23,4.1,4.1,0,0,1,1.32,3.13,4,4,0,0,1-1.32,3.11c-.87.81-2.36,1.21-4.44,1.21h-8.25V137.2a3.94,3.94,0,0,0-.74-2.72,2.92,2.92,0,0,0-2.23-.79,5.52,5.52,0,0,0-3,.95,15.43,15.43,0,0,0-3.55,3.79V155.9a5.82,5.82,0,0,1,4,1.23,4.1,4.1,0,0,1,1.32,3.13,4,4,0,0,1-1.32,3.11c-.89.81-2.38,1.21-4.48,1.21h-7.83c-2.07,0-3.57-.4-4.45-1.21a4,4,0,0,1-1.33-3.14,4,4,0,0,1,1.31-3.11,5.77,5.77,0,0,1,4.05-1.22V134.83a5.72,5.72,0,0,1-4.05-1.22,4,4,0,0,1-1.31-3.13,4,4,0,0,1,1.33-3.11c.88-.81,2.38-1.22,4.45-1.22h8.26v2.47a14.29,14.29,0,0,1,3.84-2.87,9.6,9.6,0,0,1,4-.77,8.47,8.47,0,0,1,3.76.92,13.33,13.33,0,0,1,3.64,2.79,17,17,0,0,1,4.55-2.76,12.6,12.6,0,0,1,4.73-.92,11.59,11.59,0,0,1,7.83,2.59,11.13,11.13,0,0,1,4,8.89V155.9a5.71,5.71,0,0,1,4,1.23A4.1,4.1,0,0,1,242.69,160.26Z" transform="translate(-36 -33.31)"/><rect x="212.44" y="102.71" width="36.22" height="7.91"/><path d="M309.71,129.08v-2.92h-8.25c-2.09,0-3.57.4-4.46,1.2a4,4,0,0,0-1.34,3.11,4.11,4.11,0,0,0,1.32,3.14,5.8,5.8,0,0,0,4.06,1.22v21.08c-2.23,0-3.68.21-4.36.63a4.14,4.14,0,0,0-2,3.68,4.07,4.07,0,0,0,1.33,3.16q1.33,1.2,4.47,1.2h9.86c2.08,0,3.57-.4,4.46-1.2a4,4,0,0,0,1.33-3.11,4.11,4.11,0,0,0-2.07-3.73q-1-.63-4.32-.63V139.79a23.62,23.62,0,0,1,5.74-4.94,11.43,11.43,0,0,1,5.27-1.16c2.65,0,4.64.57,6,1.69a5.19,5.19,0,0,1,1.53,4.15v16.38a5.89,5.89,0,0,0-4.07,1.2,4.38,4.38,0,0,0,0,6.27q1.33,1.2,4.47,1.2h7.83c2.09,0,3.57-.4,4.46-1.2a4,4,0,0,0,1.34-3.11,4.09,4.09,0,0,0-1.32-3.16,5.85,5.85,0,0,0-4.06-1.2V139.79a14.05,14.05,0,0,0-3.55-10Q328.85,125,321.14,125a18.29,18.29,0,0,0-6.2,1A16.46,16.46,0,0,0,309.71,129.08Z" transform="translate(-36 -33.31)"/><path d="M394.67,127.37c-.9-.81-2.37-1.22-4.47-1.22H380.05v2.59a20.19,20.19,0,0,0-12-3.86,20.27,20.27,0,0,0-14.82,5.92,20.89,20.89,0,0,0,0,29.2,20.28,20.28,0,0,0,14.82,5.89,20.55,20.55,0,0,0,6.12-.93,23.5,23.5,0,0,0,5.86-2.78v4.22a7.36,7.36,0,0,1-2.2,5.47,8.47,8.47,0,0,1-6.18,2.15h-9.56c-2.1,0-3.59.41-4.48,1.21a4.37,4.37,0,0,0,0,6.26c.89.81,2.38,1.2,4.48,1.2h9.82a16.82,16.82,0,0,0,9-2.44,16.6,16.6,0,0,0,5.91-5.87,16.09,16.09,0,0,0,1.93-8V134.83h1.47c2.1,0,3.57-.4,4.47-1.21a4.34,4.34,0,0,0,0-6.25Zm-18.19,26.31a12,12,0,0,1-17,0,11.51,11.51,0,0,1,0-16.61,12,12,0,0,1,17,0,11.56,11.56,0,0,1,0,16.61Z" transform="translate(-36 -33.31)"/><path d="M140.23,91.5a4,4,0,0,1-1.31,3.11c-.87.81-2.36,1.2-4.44,1.2H86.82c-2.08,0-3.57-.39-4.46-1.19A3.93,3.93,0,0,1,81,91.5a4,4,0,0,1,1.34-3.15c.89-.8,2.38-1.22,4.46-1.22h47.66a6.51,6.51,0,0,1,4.41,1.22A4,4,0,0,1,140.23,91.5Z" transform="translate(-36 -33.31)"/></g></svg>
